<svg width="218" height="26" viewBox="0 0 218 26" fill="none" xmlns="http://www.w3.org/2000/svg">
<g clip-path="url(#clip0_16405_59300)">
<path d="M77.3333 0H71.4195L60.8359 26H64.2813L67.0819 19.032H81.5472L84.3608 26H87.9234L77.3333 0ZM68.3193 15.938L73.4516 3.25H75.197L80.3032 15.9315L68.3193 15.938Z" fill="#1E1E1E"/>
<path d="M206.11 15.1905V26H202.717V15.1515L191.234 0H195.298L204.384 12.038L213.587 0H217.534L206.11 15.1905Z" fill="#1E1E1E"/>
<path d="M53.6881 26H32.3125V0H53.6881V3.0615H35.5169V11.4595H51.5258V14.5405H35.5169V22.9385H53.6881V26Z" fill="#1E1E1E"/>
<path d="M184.609 26H163.227V0H184.609V3.0615H166.431V11.4595H182.44V14.5405H166.431V22.9385H184.609V26Z" fill="#1E1E1E"/>
<path d="M151.811 26H148.894L131.562 5.85V26H128.273V0H131.191L148.496 20.15V0H151.785L151.811 26Z" fill="#1E1E1E"/>
<path d="M23.5965 0H19.1351L7.77649 11.375H3.28905V0H0V26H3.28905V14.625H7.76347L19.1351 26H23.5965L10.8181 13L23.5965 0Z" fill="#1E1E1E"/>
<path d="M119.315 26L110.627 14.4885C111.252 14.4627 111.873 14.3801 112.483 14.2415C115.681 13.234 117.759 10.7835 117.759 7.2605C117.759 2.5285 114.502 0 108.64 0H95.8359V26H99.0924V14.5405H106.582L115.277 26H119.315ZM99.125 3.0615H108.575C112.353 3.0615 114.365 4.498 114.365 7.2605C114.365 10.023 112.411 11.4595 108.575 11.4595H99.112L99.125 3.0615Z" fill="#1E1E1E"/>
</g>
<defs>
<clipPath id="clip0_16405_59300">
<rect width="217.533" height="26" fill="white"/>
</clipPath>
</defs>
</svg>
